<svg xmlns="http://www.w3.org/2000/svg" version="1.1" xmlns:xlink="http://www.w3.org/1999/xlink" xmlns:svgjs="http://svgjs.com/svgjs" width="1440" height="560" preserveAspectRatio="none" viewBox="0 0 1440 560"><g mask="url(&quot;#SvgjsMask1302&quot;)" fill="none"><rect width="1440" height="560" x="0" y="0" fill="url(#SvgjsLinearGradient1303)"></rect><path d="M1440 0L771.33 0L1440 130.22z" fill="rgba(255, 255, 255, .1)"></path><path d="M771.33 0L1440 130.22L1440 293.1L352.46000000000004 0z" fill="rgba(255, 255, 255, .075)"></path><path d="M352.46000000000004 0L1440 293.1L1440 398.01L169.87000000000003 0z" fill="rgba(255, 255, 255, .05)"></path><path d="M169.87000000000012 0L1440 398.01L1440 437.43L69.93000000000012 0z" fill="rgba(255, 255, 255, .025)"></path><path d="M0 560L93.45 560L0 462.74z" fill="rgba(0, 0, 0, .1)"></path><path d="M0 462.74L93.45 560L446.96 560L0 372.8z" fill="rgba(0, 0, 0, .075)"></path><path d="M0 372.8L446.96 560L826.8599999999999 560L0 191.49z" fill="rgba(0, 0, 0, .05)"></path><path d="M0 191.49L826.8599999999999 560L1116.9699999999998 560L0 189.92000000000002z" fill="rgba(0, 0, 0, .025)"></path></g><defs><mask id="SvgjsMask1302"><rect width="1440" height="560" fill="#ffffff"></rect></mask><linearGradient x1="50%" y1="100%" x2="50%" y2="0%" gradientUnits="userSpaceOnUse" id="SvgjsLinearGradient1303"><stop stop-color="rgba(255, 255, 255, 1)" offset="0"></stop><stop stop-color="rgba(235, 226, 221, 1)" offset="0.21"></stop></linearGradient></defs></svg>